<?xml version="1.0" encoding="UTF-8"?>
<svg xmlns="http://www.w3.org/2000/svg" width="600" height="384" viewBox="0 0 800 480">
  <defs>
    <filter id="crispify">
      <feComponentTransfer>
        <feFuncA type="discrete" tableValues="0 1"/>
      </feComponentTransfer>
    </filter>
    <style>
      text {
        filter: url(#crispify);
      }

      .cls-1, .cls-2, .cls-3, .cls-4, .cls-5, .cls-6, .cls-7, .cls-8 {
        fill: #fff;
      }

      .cls-1, .cls-9, .cls-10, .cls-11 {
        stroke-miterlimit: 10;
      }

      .cls-1, .cls-10 {
        stroke: #000;
      }

      .cls-1, .cls-10, .cls-11 {
        stroke-width: 3px;
      }

      .cls-3 {
        font-size: 54.16px;
      }

      .cls-3, .cls-6, .cls-7, .cls-8 {
        font-family: 'Louis George Cafe';
        font-weight: Bold;
      }

      .cls-4, .cls-12, .cls-13 {
        font-family: 'Bebas Neue';
      }

      .cls-4, .cls-13 {
        font-size: 36px;
      }

      .cls-14 {
        letter-spacing: -.03em;
      }

      .cls-9, .cls-10 {
        fill: none;
      }

      .cls-9, .cls-11 {
        stroke: #fff;
      }

      .cls-12 {
        font-size: 48px;
      }

      .cls-12, .cls-11, .cls-13, .cls-15 {
        fill: #000;
      }

      .cls-5 {
        font-family: 'Louis George Cafe';
        font-size: 24.07px;
      }

      .cls-6 {
        font-size: 80px;
      }

      .cls-7 {
        font-size: 45.6px;
      }

      .cls-16 {
        letter-spacing: -.03em;
      }

      .cls-8 {
        font-size: 28.8px;
      }
    </style>
  </defs>
  <g id="background">
    <rect fill="#fff" width="800" height="480"/>
    <rect class="cls-15" x="529.7" width="270.3" height="331.35"/>
    <rect class="cls-15" y="336.04" width="800" height="143.96"/>
  </g>
  <g id="bus-times">
    <g id="park-col">
      <text class="cls-12" transform="translate(21 55.3)"><tspan class="cls-16" x="0" y="0">P</tspan><tspan x="16.85" y="0">ark </tspan><tspan class="cls-14" x="82.99" y="0">A</tspan><tspan x="100.89" y="0">ve</tspan></text>
      <g id="park-1">
        <path class="cls-10" d="m39.26,72.3h188.87v28.7c0,10.94-8.88,19.83-19.83,19.83H21v-30.26c0-10.08,8.18-18.26,18.26-18.26Z"/>
        <path class="cls-15" d="m98.22,72.3h129.91v28.7c0,10.94-8.88,19.83-19.83,19.83h-110.09v-48.52h0Z"/>
        <text id="park-1-route" class="cls-13" transform="translate(28.04 109.48)"><tspan x="0" y="0">156</tspan></text>
        <text id="park-1-time" class="cls-4" text-anchor="end" transform="translate(215 109.48)"><tspan x="0" y="0">12:35 pm</tspan></text>
      </g>
      <g id="park-2">
        <path class="cls-10" d="m39.26,136.99h188.87v28.7c0,10.94-8.88,19.83-19.83,19.83H21v-30.26c0-10.08,8.18-18.26,18.26-18.26Z"/>
        <path class="cls-15" d="m98.22,136.99h129.91v28.7c0,10.94-8.88,19.83-19.83,19.83h-110.09v-48.52h0Z"/>
        <text id="park-2-route" class="cls-13" transform="translate(28.04 174.16)"><tspan x="0" y="0">089</tspan></text>
        <text id="park-2-time" class="cls-4" text-anchor="end" transform="translate(215 174.16)"><tspan x="0" y="0">14:35 pm</tspan></text>
      </g>
      <g id="park-3">
        <path class="cls-15" d="m98.22,201.67h129.91v28.7c0,10.94-8.88,19.83-19.83,19.83h-110.09v-48.52h0Z"/>
        <path class="cls-10" d="m39.26,201.67h188.87v28.7c0,10.94-8.88,19.83-19.83,19.83H21v-30.26c0-10.08,8.18-18.26,18.26-18.26Z"/>
        <text id="park-3-route" class="cls-13" transform="translate(28.04 238.85)"><tspan x="0" y="0">156</tspan></text>
        <text id="park-3-time" class="cls-4" text-anchor="end" transform="translate(215 238.85)"><tspan x="0" y="0">14:35 pm</tspan></text>
      </g>
      <g id="park-4">
        <path class="cls-15" d="m98.22,266.36h129.91v28.7c0,10.94-8.88,19.83-19.83,19.83h-110.09v-48.52h0Z"/>
        <path class="cls-10" d="m39.26,266.36h188.87v28.7c0,10.94-8.88,19.83-19.83,19.83H21v-30.26c0-10.08,8.18-18.26,18.26-18.26Z"/>
        <text id="park-4-route" class="cls-13" transform="translate(28.04 303.53)"><tspan x="0" y="0">089</tspan></text>
        <text id="park-4-time" class="cls-4" text-anchor="end" transform="translate(215 303.53)"><tspan x="0" y="0">14:35 pm</tspan></text>
      </g>
    </g>
    <g id="blvd-col">
      <text class="cls-12" transform="translate(287.46 55.3)"><tspan x="0" y="0">Boule</tspan><tspan class="cls-14" x="91.82" y="0">v</tspan><tspan x="108.81" y="0">ard E</tspan></text>
      <g id="blvd-1">
        <path class="cls-15" d="m365.52,72.3h129.91v28.7c0,10.94-8.88,19.83-19.83,19.83h-110.09v-48.52h0Z"/>
        <path class="cls-10" d="m306.57,72.3h188.87v28.7c0,10.94-8.88,19.83-19.83,19.83h-187.3v-30.26c0-10.08,8.18-18.26,18.26-18.26Z"/>
        <text id="blvd-1-route" class="cls-13" transform="translate(295.35 109.48)"><tspan x="0" y="0">166</tspan></text>
        <text id="blvd-1-time" class="cls-4" text-anchor="end" transform="translate(480 109.48)"><tspan x="0" y="0">12:35 pm</tspan></text>
      </g>
      <g id="blvd-2">
        <path class="cls-15" d="m365.52,136.99h129.91v28.7c0,10.94-8.88,19.83-19.83,19.83h-110.09v-48.52h0Z"/>
        <path class="cls-10" d="m306.57,136.99h188.87v28.7c0,10.94-8.88,19.83-19.83,19.83h-187.3v-30.26c0-10.08,8.18-18.26,18.26-18.26Z"/>
        <text id="blvd-2-route" class="cls-13" transform="translate(295.35 174.16)"><tspan x="0" y="0">168</tspan></text>
        <text id="blvd-2-time" class="cls-4" text-anchor="end" transform="translate(480 174.16)"><tspan x="0" y="0">14:35 pm</tspan></text>
      </g>
      <g id="blvd-3">
        <path class="cls-15" d="m365.52,201.67h129.91v28.7c0,10.94-8.88,19.83-19.83,19.83h-110.09v-48.52h0Z"/>
        <path class="cls-10" d="m306.57,201.67h188.87v28.7c0,10.94-8.88,19.83-19.83,19.83h-187.3v-30.26c0-10.08,8.18-18.26,18.26-18.26Z"/>
        <text id="blvd-3-route" class="cls-13" transform="translate(295.35 238.85)"><tspan x="0" y="0">128</tspan></text>
        <text id="blvd-3-time" class="cls-4" text-anchor="end" transform="translate(480 238.85)"><tspan x="0" y="0">14:35 pm</tspan></text>
      </g>
      <g id="blvd-4">
        <path class="cls-15" d="m365.52,266.36h129.91v28.7c0,10.94-8.88,19.83-19.83,19.83h-110.09v-48.52h0Z"/>
        <path class="cls-10" d="m306.57,266.36h188.87v28.7c0,10.94-8.88,19.83-19.83,19.83h-187.3v-30.26c0-10.08,8.18-18.26,18.26-18.26Z"/>
        <text id="blvd-4-route" class="cls-13" transform="translate(295.35 303.53)"><tspan x="0" y="0">166</tspan></text>
        <text id="blvd-4-time"  class="cls-4" text-anchor="end" transform="translate(480 303.53)"><tspan x="0" y="0">14:35 pm</tspan></text>
      </g>
    </g>
    <line class="cls-1" x1="261.74" y1="21.7" x2="261.74" y2="314.88"/>
  </g>
  <g id="time-temp">
    <text id="text-time" text-anchor="middle" class="cls-3" transform="translate(668.16 192.78)" overflow="visible"><tspan x="0" y="0">12:59 pm</tspan></text>
    <text class="cls-6" id="text-curr-temp" text-anchor="end" transform="translate(665.16 307.58)"><tspan x="0" y="0">79</tspan></text>
    <text class="cls-8" id="text-hi-lo-temp" transform="translate(710.47 272.07)"><tspan x="0" y="0">83</tspan><tspan x="0" y="34.56">59</tspan></text>
    <text id="text-date" class="cls-7" text-anchor="middle" transform="translate(665 65.81)">
      <tspan x="0" y="0">Wednesday</tspan>
      <tspan x="-5" y="45.81">Apr 9</tspan>
    </text>
    <path class="cls-2" d="m670.11,258.64c0-5.59,4.65-10.27,10.27-10.27s10.27,4.65,10.27,10.27-4.69,10.31-10.27,10.31-10.27-4.69-10.27-10.31Zm16.99,0c0-3.67-3.05-6.72-6.72-6.72s-6.72,3.01-6.72,6.72,2.97,6.72,6.72,6.72,6.72-3.01,6.72-6.72Z"/>
    <line class="cls-11" x1="549.26" y1="225.93" x2="788.14" y2="225.93"/>
  </g>
  <g id="precip">
    <line class="cls-9" x1="24.83" y1="435" x2="758.91" y2="435"/>
    <text class="cls-5" transform="translate(24.83 459.61)"><tspan x="0" y="0">12am</tspan></text>
    <text class="cls-5" transform="translate(208.43 459.61)"><tspan x="0" y="0">6am</tspan></text>
    <text class="cls-5" transform="translate(391.42 459.61)"><tspan x="0" y="0">12pm</tspan></text>
    <text class="cls-5" transform="translate(575.42 459.61)"><tspan x="0" y="0">6pm</tspan></text>
    <g transform="translate(0, 360)">
      <g id="precip-lines" transform="translate(0, 75) scale(1, -1)">
        <rect class="cls-2" x="24.83" y="0" width="10" height="75" transform="scale(1, 0.1)"/>
        <rect class="cls-2" x="55.42" y="0" width="10" height="75" transform="scale(1, 0.1)"/>
        <rect class="cls-2" x="86.0" y="0" width="10" height="75" transform="scale(1, 0.1)"/>
        <rect class="cls-2" x="116.59" y="0" width="10" height="75" transform="scale(1, 0.1)"/>
        <rect class="cls-2" x="147.18" y="0" width="10" height="75" transform="scale(1, 0.1)"/>
        <rect class="cls-2" x="177.76" y="0" width="10" height="75" transform="scale(1, 0.1)"/>
        <rect class="cls-2" x="208.35" y="0" width="10" height="75" transform="scale(1, 0.1)"/>
        <rect class="cls-2" x="238.94" y="0" width="10" height="75" transform="scale(1, 0.1)"/>
        <rect class="cls-2" x="269.52" y="0" width="10" height="75" transform="scale(1, 0.1)"/>
        <rect class="cls-2" x="300.11" y="0" width="10" height="75" transform="scale(1, 0.1)"/>
        <rect class="cls-2" x="330.7" y="0" width="10" height="75" transform="scale(1, 0.1)"/>
        <rect class="cls-2" x="361.28" y="0" width="10" height="75" transform="scale(1, 0.1)"/>
        <rect class="cls-2" x="391.87" y="0" width="10" height="75" transform="scale(1, 0.1)"/>
        <rect class="cls-2" x="422.46" y="0" width="10" height="75" transform="scale(1, 0.1)"/>
        <rect class="cls-2" x="453.04" y="0" width="10" height="75" transform="scale(1, 0.1)"/>
        <rect class="cls-2" x="483.63" y="0" width="10" height="75" transform="scale(1, 0.1)"/>
        <rect class="cls-2" x="514.22" y="0" width="10" height="75" transform="scale(1, 0.1)"/>
        <rect class="cls-2" x="544.8" y="0" width="10" height="75" transform="scale(1, 0.1)"/>
        <rect class="cls-2" x="575.39" y="0" width="10" height="75" transform="scale(1, 0.1)"/>
        <rect class="cls-2" x="605.98" y="0" width="10" height="75" transform="scale(1, 0.1)"/>
        <rect class="cls-2" x="636.56" y="0" width="10" height="75" transform="scale(1, 0.1)"/>
        <rect class="cls-2" x="667.15" y="0" width="10" height="75" transform="scale(1, 0.1)"/>
        <rect class="cls-2" x="697.74" y="0" width="10" height="75" transform="scale(1, 0.1)"/>
        <rect class="cls-2" x="728.32" y="0" width="10" height="75" transform="scale(1, 0.1)"/>
      </g>
    </g>
    <svg x="24.83" y="360" width="734.08" height="75" overflow="visible">
      <svg id="precip-time" x="50%" overflow="visible" width="724.08">
        <polygon class="cls-2" points="0 0 -10 -16.42 9.8 -16.42 0 0"/>
        <line class="cls-9" x1="0" y1="-5" x2="0" y2="75"/>
      </svg>
    </svg>
  </g>
</svg>